<svg width="2268" height="2324" viewBox="0 0 2268 2324" fill="none" xmlns="http://www.w3.org/2000/svg">
<circle cx="1134" cy="1162" r="821" fill="#00374E"/>
<path d="M1071.08 555.17C1041.04 565.125 1045.14 726.823 1074.99 826.375C1114.88 957.234 1104.62 1009.88 1039.71 1009.78C1004.8 1009.88 956.258 1029.02 937.797 1048.8C921.046 1066.97 888.57 1087.82 877.039 1087.82C843.787 1087.82 732 1229.69 732 1271.23C732 1367.46 899.851 1507.28 963.276 1462.44C978.136 1452.58 1036.25 1418.06 1071.08 1398.05C1121.03 1373.27 1141.89 1347.29 1131.83 1325.86C1125.13 1311.06 1113.17 1253.28 1108.32 1218.55C1099.84 1140.47 1170.26 1053.64 1255.31 1037.09C1285.46 1032.1 1319.99 1020.82 1319.99 1017.58C1319.99 1016.03 1292.3 926.125 1269.03 849.786C1207.52 652.299 1127.87 535.384 1071.08 555.17Z" fill="#FAF5EA"/>
<path d="M1213.07 1160.2C1173.27 1193.46 1171.56 1207.13 1201.33 1240.58C1218.05 1258.75 1273.78 1282.34 1306.96 1285.67C1386.93 1292.25 1395.82 1346.95 1322.61 1393.5C1279.25 1421.82 1252.58 1462.16 1244.37 1517.01C1236.17 1570.18 1220.79 1596.51 1197.42 1591.51C1162.67 1584.88 1147.63 1486.43 1175.9 1434.67L1199.38 1389.58L1152.43 1430.75C1032.77 1539.07 854.66 1578.39 774.902 1515.05C716.55 1470.02 721.336 1507.28 784.682 1595.43C871.069 1715.47 952.773 1770.17 1040.93 1771.88C1133.96 1771.88 1319.58 1705.9 1402.81 1642.48C1519.23 1554.12 1578.71 1283.37 1500.62 1191.57C1447.44 1129.87 1273.09 1111.75 1213.07 1160.2Z" fill="#FAF5EA"/>
</svg>
